<svg width="500" height="318" viewBox="0 0 500 318" fill="none" xmlns="http://www.w3.org/2000/svg">
<path d="M487.4 317.36H280.43C273.703 317.36 268.254 311.907 268.254 305.184V268.661H213.629V280.731H253.168C254.879 280.731 256.262 282.114 256.262 283.825V289.911C256.262 291.614 254.879 293.004 253.168 293.004H161.859C160.148 293.004 158.765 291.622 158.765 289.911V283.825C158.765 282.122 160.148 280.731 161.859 280.731H201.48V268.661L12.6 268.665C5.87341 268.665 0.424011 263.212 0.424011 256.489L0.427917 12.8189C0.427917 6.10012 5.87711 0.642914 12.6039 0.642914H402.184C408.91 0.642914 414.36 6.09602 414.36 12.8189V67.5999H487.403C494.129 67.5999 499.579 73.0491 499.579 79.7759V305.186C499.575 311.913 494.122 317.366 487.399 317.366L487.4 317.36ZM280.68 305.063H365.813L365.809 146.763H280.68L280.68 305.063ZM402.33 12.853H12.85V256.373H268.25V146.743C268.25 140.024 273.699 134.567 280.426 134.567H316.949V79.786C316.949 73.0594 322.398 67.61 329.125 67.61H402.34L402.336 12.86L402.33 12.853ZM487.549 79.814H329.369V134.568H365.658C372.385 134.568 377.834 140.021 377.834 146.744V305.074H487.544L487.549 79.814ZM405.338 280.744H411.432C413.143 280.744 414.526 282.127 414.526 283.838V289.924C414.526 291.627 413.143 293.017 411.432 293.017L405.338 293.014C403.627 293.014 402.244 291.631 402.244 289.92V283.834C402.244 282.123 403.627 280.744 405.338 280.744V280.744ZM326.213 293.014H320.119C318.408 293.014 317.025 291.631 317.025 289.92V283.834C317.025 282.131 318.408 280.741 320.119 280.741H326.213C327.924 280.741 329.307 282.123 329.307 283.834V289.92C329.307 291.627 327.924 293.014 326.213 293.014Z" fill="#14532d"/>
</svg>
