<svg width="1200" height="425" viewBox="0 0 1200 425" fill="none" xmlns="http://www.w3.org/2000/svg">
<g opacity="0.78">
<path d="M487.32 89.32V183.68H488.16C489.84 181.44 491.987 179.107 494.6 176.68C497.213 174.253 500.293 172.013 503.84 169.96C507.573 167.907 511.867 166.227 516.72 164.92C521.573 163.427 527.08 162.68 533.24 162.68C542.76 162.68 551.533 164.547 559.56 168.28C567.587 171.827 574.493 176.773 580.28 183.12C586.067 189.467 590.547 196.933 593.72 205.52C596.893 214.107 598.48 223.347 598.48 233.24C598.48 243.133 596.893 252.467 593.72 261.24C590.733 269.827 586.347 277.387 580.56 283.92C574.96 290.267 568.053 295.4 559.84 299.32C551.813 303.053 542.667 304.92 532.4 304.92C522.88 304.92 513.92 302.867 505.52 298.76C497.307 294.653 490.867 288.68 486.2 280.84H485.64V301H453.72V89.32H487.32ZM564.32 233.24C564.32 228.013 563.48 222.88 561.8 217.84C560.307 212.613 557.973 207.947 554.8 203.84C551.627 199.733 547.613 196.467 542.76 194.04C537.907 191.427 532.213 190.12 525.68 190.12C519.52 190.12 514.013 191.427 509.16 194.04C504.307 196.653 500.107 200.013 496.56 204.12C493.2 208.227 490.587 212.893 488.72 218.12C487.04 223.347 486.2 228.573 486.2 233.8C486.2 239.027 487.04 244.253 488.72 249.48C490.587 254.52 493.2 259.093 496.56 263.2C500.107 267.307 504.307 270.667 509.16 273.28C514.013 275.707 519.52 276.92 525.68 276.92C532.213 276.92 537.907 275.613 542.76 273C547.613 270.387 551.627 267.027 554.8 262.92C557.973 258.813 560.307 254.147 561.8 248.92C563.48 243.693 564.32 238.467 564.32 233.24ZM631.454 166.6H665.054V301H631.454V166.6ZM626.694 120.96C626.694 115.547 628.654 110.88 632.574 106.96C636.681 102.853 641.814 100.8 647.974 100.8C654.134 100.8 659.268 102.76 663.374 106.68C667.668 110.413 669.814 115.173 669.814 120.96C669.814 126.747 667.668 131.6 663.374 135.52C659.268 139.253 654.134 141.12 647.974 141.12C641.814 141.12 636.681 139.16 632.574 135.24C628.654 131.133 626.694 126.373 626.694 120.96ZM779.456 202.44C776.47 198.52 772.363 195.16 767.136 192.36C761.91 189.373 756.216 187.88 750.056 187.88C744.643 187.88 739.696 189 735.216 191.24C730.736 193.48 728.496 197.213 728.496 202.44C728.496 207.667 730.923 211.4 735.776 213.64C740.816 215.693 748.096 217.84 757.616 220.08C762.656 221.2 767.696 222.693 772.736 224.56C777.963 226.427 782.63 228.947 786.736 232.12C791.03 235.107 794.483 238.933 797.096 243.6C799.71 248.08 801.016 253.587 801.016 260.12C801.016 268.333 799.43 275.333 796.256 281.12C793.27 286.72 789.163 291.293 783.936 294.84C778.896 298.387 772.923 300.907 766.016 302.4C759.296 304.08 752.296 304.92 745.016 304.92C734.563 304.92 724.39 303.053 714.496 299.32C704.603 295.4 696.39 289.893 689.856 282.8L711.976 262.08C715.71 266.933 720.563 270.947 726.536 274.12C732.51 277.293 739.136 278.88 746.416 278.88C748.843 278.88 751.27 278.6 753.696 278.04C756.31 277.48 758.643 276.64 760.696 275.52C762.936 274.213 764.71 272.533 766.016 270.48C767.323 268.427 767.976 265.907 767.976 262.92C767.976 257.32 765.363 253.307 760.136 250.88C755.096 248.453 747.443 246.027 737.176 243.6C732.136 242.48 727.19 241.08 722.336 239.4C717.67 237.533 713.47 235.2 709.736 232.4C706.003 229.413 703.016 225.773 700.776 221.48C698.536 217.187 697.416 211.867 697.416 205.52C697.416 198.053 698.91 191.613 701.896 186.2C705.07 180.787 709.176 176.4 714.216 173.04C719.256 169.493 724.95 166.88 731.296 165.2C737.643 163.52 744.176 162.68 750.896 162.68C760.603 162.68 770.03 164.36 779.176 167.72C788.51 171.08 795.883 176.213 801.296 183.12L779.456 202.44ZM810.91 193.48V166.6H834.43V127.68H867.47V166.6H901.07V193.48H867.47V255.92C867.47 261.893 868.497 266.84 870.55 270.76C872.79 274.68 877.644 276.64 885.11 276.64C887.35 276.64 889.777 276.453 892.39 276.08C895.004 275.52 897.337 274.773 899.39 273.84L900.51 300.16C897.524 301.28 893.977 302.12 889.87 302.68C885.764 303.427 881.844 303.8 878.11 303.8C869.15 303.8 861.87 302.587 856.27 300.16C850.67 297.547 846.19 294.093 842.83 289.8C839.657 285.32 837.417 280.28 836.11 274.68C834.99 268.893 834.43 262.733 834.43 256.2V193.48H810.91ZM925.387 166.6H957.587V189H958.147C961.88 181.16 967.107 174.813 973.827 169.96C980.547 165.107 988.387 162.68 997.347 162.68C998.653 162.68 1000.05 162.773 1001.55 162.96C1003.04 162.96 1004.35 163.147 1005.47 163.52V194.32C1003.23 193.76 1001.27 193.387 999.587 193.2C998.093 193.013 996.6 192.92 995.107 192.92C987.453 192.92 981.293 194.32 976.627 197.12C971.96 199.92 968.32 203.28 965.707 207.2C963.093 211.12 961.32 215.133 960.387 219.24C959.453 223.347 958.987 226.613 958.987 229.04V301H925.387V166.6ZM1014.62 233.24C1014.62 222.6 1016.48 212.987 1020.22 204.4C1024.14 195.627 1029.36 188.16 1035.9 182C1042.43 175.84 1050.18 171.08 1059.14 167.72C1068.1 164.36 1077.62 162.68 1087.7 162.68C1097.78 162.68 1107.3 164.36 1116.26 167.72C1125.22 171.08 1132.96 175.84 1139.5 182C1146.03 188.16 1151.16 195.627 1154.9 204.4C1158.82 212.987 1160.78 222.6 1160.78 233.24C1160.78 243.88 1158.82 253.587 1154.9 262.36C1151.16 271.133 1146.03 278.693 1139.5 285.04C1132.96 291.2 1125.22 296.053 1116.26 299.6C1107.3 303.147 1097.78 304.92 1087.7 304.92C1077.62 304.92 1068.1 303.147 1059.14 299.6C1050.18 296.053 1042.43 291.2 1035.9 285.04C1029.36 278.693 1024.14 271.133 1020.22 262.36C1016.48 253.587 1014.62 243.88 1014.62 233.24ZM1048.78 233.24C1048.78 238.467 1049.52 243.693 1051.02 248.92C1052.7 254.147 1055.12 258.813 1058.3 262.92C1061.47 267.027 1065.48 270.387 1070.34 273C1075.19 275.613 1080.98 276.92 1087.7 276.92C1094.42 276.92 1100.2 275.613 1105.06 273C1109.91 270.387 1113.92 267.027 1117.1 262.92C1120.27 258.813 1122.6 254.147 1124.1 248.92C1125.78 243.693 1126.62 238.467 1126.62 233.24C1126.62 228.013 1125.78 222.88 1124.1 217.84C1122.6 212.613 1120.27 207.947 1117.1 203.84C1113.92 199.733 1109.91 196.467 1105.06 194.04C1100.2 191.427 1094.42 190.12 1087.7 190.12C1080.98 190.12 1075.19 191.427 1070.34 194.04C1065.48 196.467 1061.47 199.733 1058.3 203.84C1055.12 207.947 1052.7 212.613 1051.02 217.84C1049.52 222.88 1048.78 228.013 1048.78 233.24Z" fill="black"/>
<path fill-rule="evenodd" clip-rule="evenodd" d="M26 21.064H27.1088C26.4306 20.92 26 21.064 26 21.064ZM27.1088 21.064C29.6237 21.5979 35.5438 26.0911 35.5438 56.566V216.836C35.3287 220.393 35.2196 223.979 35.2196 227.59C35.2196 324.466 113.744 403 210.61 403C307.475 403 386 324.466 386 227.59C386 130.714 307.475 52.1798 210.61 52.1798C178.26 52.1798 147.957 60.9387 121.94 76.2147V64.064C121.94 40.3157 102.688 21.064 78.94 21.064H27.1088ZM211.109 316.041C260.784 316.041 301.053 275.767 301.053 226.087C301.053 176.407 260.784 136.133 211.109 136.133C161.435 136.133 121.166 176.407 121.166 226.087C121.166 275.767 161.435 316.041 211.109 316.041Z" fill="url(#paint0_linear_4_24)"/>
</g>
<defs>
<linearGradient id="paint0_linear_4_24" x1="205.613" y1="21" x2="205.613" y2="403" gradientUnits="userSpaceOnUse">
<stop offset="0.494792" stop-color="#FF3205"/>
<stop offset="1" stop-color="#FF6B00"/>
</linearGradient>
</defs>
</svg>
