<svg width="830" height="240" viewBox="0 0 830 240" fill="none" xmlns="http://www.w3.org/2000/svg">
<rect width="240" height="240" rx="60" fill="#FF3205"/>
<path d="M43 157.969C43 157.969 135 110.969 142.117 64.9694C146.246 38.2868 112 22.9693 85 59.9693C57.9999 96.9692 51.9999 188.969 110 199.969C168 210.969 191 142.969 159 118.969C127 94.9693 91.8827 123.969 110 147.969C128.117 171.969 183 157.969 196 147.969" stroke="white" stroke-width="20" stroke-linecap="round" stroke-linejoin="round"/>
<path d="M334.62 183.16C327.9 183.16 322.02 181.9 316.98 179.38C311.94 176.86 307.86 173.32 304.74 168.76L302.22 181H281.7V51.4H304.74V104.5C307.62 100.54 311.4 97.06 316.08 94.06C320.88 91.06 327.06 89.56 334.62 89.56C343.02 89.56 350.52 91.6 357.12 95.68C363.72 99.76 368.94 105.34 372.78 112.42C376.62 119.5 378.54 127.54 378.54 136.54C378.54 145.54 376.62 153.58 372.78 160.66C368.94 167.62 363.72 173.14 357.12 177.22C350.52 181.18 343.02 183.16 334.62 183.16ZM329.76 163C337.08 163 343.14 160.54 347.94 155.62C352.74 150.7 355.14 144.34 355.14 136.54C355.14 128.74 352.74 122.32 347.94 117.28C343.14 112.24 337.08 109.72 329.76 109.72C322.32 109.72 316.2 112.24 311.4 117.28C306.72 122.2 304.38 128.56 304.38 136.36C304.38 144.16 306.72 150.58 311.4 155.62C316.2 160.54 322.32 163 329.76 163ZM411.542 77.86C407.342 77.86 403.862 76.6 401.102 74.08C398.462 71.56 397.142 68.38 397.142 64.54C397.142 60.7 398.462 57.58 401.102 55.18C403.862 52.66 407.342 51.4 411.542 51.4C415.742 51.4 419.162 52.66 421.802 55.18C424.562 57.58 425.942 60.7 425.942 64.54C425.942 68.38 424.562 71.56 421.802 74.08C419.162 76.6 415.742 77.86 411.542 77.86ZM400.022 181V91.72H423.062V181H400.022ZM484.01 183.16C476.09 183.16 469.13 181.9 463.13 179.38C457.13 176.74 452.33 173.14 448.73 168.58C445.13 164.02 442.97 158.74 442.25 152.74H465.47C466.19 156.22 468.11 159.22 471.23 161.74C474.47 164.14 478.61 165.34 483.65 165.34C488.69 165.34 492.35 164.32 494.63 162.28C497.03 160.24 498.23 157.9 498.23 155.26C498.23 151.42 496.55 148.84 493.19 147.52C489.83 146.08 485.15 144.7 479.15 143.38C475.31 142.54 471.41 141.52 467.45 140.32C463.49 139.12 459.83 137.62 456.47 135.82C453.23 133.9 450.59 131.5 448.55 128.62C446.51 125.62 445.49 121.96 445.49 117.64C445.49 109.72 448.61 103.06 454.85 97.66C461.21 92.26 470.09 89.56 481.49 89.56C492.05 89.56 500.45 92.02 506.69 96.94C513.05 101.86 516.83 108.64 518.03 117.28H496.25C494.93 110.68 489.95 107.38 481.31 107.38C476.99 107.38 473.63 108.22 471.23 109.9C468.95 111.58 467.81 113.68 467.81 116.2C467.81 118.84 469.55 120.94 473.03 122.5C476.51 124.06 481.13 125.5 486.89 126.82C493.13 128.26 498.83 129.88 503.99 131.68C509.27 133.36 513.47 135.94 516.59 139.42C519.71 142.78 521.27 147.64 521.27 154C521.39 159.52 519.95 164.5 516.95 168.94C513.95 173.38 509.63 176.86 503.99 179.38C498.35 181.9 491.69 183.16 484.01 183.16ZM578.648 181C569.288 181 561.788 178.72 556.148 174.16C550.508 169.6 547.688 161.5 547.688 149.86V110.98H532.388V91.72H547.688L550.388 67.78H570.728V91.72H594.848V110.98H570.728V150.04C570.728 154.36 571.628 157.36 573.428 159.04C575.348 160.6 578.588 161.38 583.148 161.38H594.308V181H578.648ZM614.63 181V91.72H635.15L637.31 108.46C640.55 102.7 644.93 98.14 650.45 94.78C656.09 91.3 662.69 89.56 670.25 89.56V113.86H663.77C658.73 113.86 654.23 114.64 650.27 116.2C646.31 117.76 643.19 120.46 640.91 124.3C638.75 128.14 637.67 133.48 637.67 140.32V181H614.63ZM727.255 183.16C718.615 183.16 710.815 181.18 703.855 177.22C697.015 173.26 691.555 167.8 687.475 160.84C683.515 153.76 681.535 145.6 681.535 136.36C681.535 127.12 683.575 119.02 687.655 112.06C691.735 104.98 697.195 99.46 704.035 95.5C710.995 91.54 718.795 89.56 727.435 89.56C735.955 89.56 743.635 91.54 750.475 95.5C757.435 99.46 762.895 104.98 766.855 112.06C770.935 119.02 772.975 127.12 772.975 136.36C772.975 145.6 770.935 153.76 766.855 160.84C762.895 167.8 757.435 173.26 750.475 177.22C743.515 181.18 735.775 183.16 727.255 183.16ZM727.255 163.18C733.255 163.18 738.475 160.96 742.915 156.52C747.355 151.96 749.575 145.24 749.575 136.36C749.575 127.48 747.355 120.82 742.915 116.38C738.475 111.82 733.315 109.54 727.435 109.54C721.315 109.54 716.035 111.82 711.595 116.38C707.275 120.82 705.115 127.48 705.115 136.36C705.115 145.24 707.275 151.96 711.595 156.52C716.035 160.96 721.255 163.18 727.255 163.18Z" fill="#292929"/>
</svg>
