<svg width="512" height="512" viewBox="0 0 512 512" fill="none" xmlns="http://www.w3.org/2000/svg">
<g opacity="0.78">
<path fill-rule="evenodd" clip-rule="evenodd" d="M24 10.1268H25.4322C24.5562 9.94062 24 10.1268 24 10.1268ZM25.4322 10.1268C28.6806 10.8172 36.3274 16.6273 36.3274 56.0336V263.275C36.0495 267.875 35.9086 272.511 35.9086 277.181C35.9086 402.45 137.337 504 262.454 504C387.572 504 489 402.45 489 277.181C489 151.912 387.572 50.3619 262.454 50.3619C220.67 50.3619 181.527 61.6879 147.922 81.4409V53.1268C147.922 29.3786 128.671 10.1268 104.922 10.1268H25.4322ZM263.1 391.555C327.263 391.555 379.277 339.478 379.277 275.238C379.277 210.997 327.263 158.92 263.1 158.92C198.937 158.92 146.922 210.997 146.922 275.238C146.922 339.478 198.937 391.555 263.1 391.555Z" fill="url(#paint0_linear_3_2)"/>
<path fill-rule="evenodd" clip-rule="evenodd" d="M24 10.1268H25.4322C24.5562 9.94062 24 10.1268 24 10.1268ZM25.4322 10.1268C28.6806 10.8172 36.3274 16.6273 36.3274 56.0336V263.275C36.0495 267.875 35.9086 272.511 35.9086 277.181C35.9086 402.45 137.337 504 262.454 504C387.572 504 489 402.45 489 277.181C489 151.912 387.572 50.3619 262.454 50.3619C220.67 50.3619 181.527 61.6879 147.922 81.4409V53.1268C147.922 29.3786 128.671 10.1268 104.922 10.1268H25.4322ZM263.1 391.555C327.263 391.555 379.277 339.478 379.277 275.238C379.277 210.997 327.263 158.92 263.1 158.92C198.937 158.92 146.922 210.997 146.922 275.238C146.922 339.478 198.937 391.555 263.1 391.555Z" fill="url(#paint1_linear_3_2)"/>
</g>
<defs>
<linearGradient id="paint0_linear_3_2" x1="256" y1="10.0441" x2="256" y2="504" gradientUnits="userSpaceOnUse">
<stop offset="0.494792" stop-color="#FF3205"/>
<stop offset="1" stop-color="#FF6B00"/>
</linearGradient>
<linearGradient id="paint1_linear_3_2" x1="256" y1="10.0441" x2="256" y2="504" gradientUnits="userSpaceOnUse">
<stop offset="0.494792" stop-color="#FF3205"/>
<stop offset="1" stop-color="#FF6B00"/>
</linearGradient>
</defs>
</svg>
