<svg width="296" height="296" viewBox="0 0 296 296" fill="none" xmlns="http://www.w3.org/2000/svg">
<circle cx="148" cy="148" r="120" fill="#F3F6F9"/>
<circle cx="261" cy="268" r="7" fill="#F3F6F9"/>
<circle cx="42" cy="250" r="4" fill="#F3F6F9"/>
<circle cx="37" cy="44" r="9" fill="#F3F6F9"/>
<rect x="228.47" y="44" width="8" height="25" rx="4" transform="rotate(15 228.47 44)" fill="#CED5DE"/>
<rect x="241.142" y="78.412" width="8" height="30" rx="4" transform="rotate(-130 241.142 78.412)" fill="#CED5DE"/>
<rect x="241.697" y="93.1485" width="8" height="25" rx="4" transform="rotate(-95 241.697 93.1485)" fill="#CED5DE"/>
<mask id="mask0_25_2" style="mask-type:alpha" maskUnits="userSpaceOnUse" x="31" y="31" width="234" height="234">
<circle cx="148" cy="148" r="117" fill="#F3F6F9"/>
</mask>
<g mask="url(#mask0_25_2)">
<g filter="url(#filter0_d_25_2)">
<rect x="63" y="78" width="170" height="190" rx="10" fill="#FEFEFE"/>
</g>
<path d="M63 88C63 82.4772 67.4772 78 73 78H223C228.523 78 233 82.4772 233 88V143H63V88Z" fill="#94A3B8" fill-opacity="0.45"/>
<circle cx="104" cy="146" r="22" fill="#CED5DE" stroke="white" stroke-width="2"/>
<rect x="89" y="185" width="117.976" height="9.25301" rx="4.62651" fill="#94A3B8" fill-opacity="0.3"/>
<rect x="89" y="200.036" width="84.4337" height="9.25301" rx="4.62651" fill="#CBD5E1" fill-opacity="0.3"/>
</g>
<defs>
<filter id="filter0_d_25_2" x="53" y="72" width="190" height="210" filterUnits="userSpaceOnUse" color-interpolation-filters="sRGB">
<feFlood flood-opacity="0" result="BackgroundImageFix"/>
<feColorMatrix in="SourceAlpha" type="matrix" values="0 0 0 0 0 0 0 0 0 0 0 0 0 0 0 0 0 0 127 0" result="hardAlpha"/>
<feMorphology radius="2" operator="dilate" in="SourceAlpha" result="effect1_dropShadow_25_2"/>
<feOffset dy="4"/>
<feGaussianBlur stdDeviation="4"/>
<feComposite in2="hardAlpha" operator="out"/>
<feColorMatrix type="matrix" values="0 0 0 0 0.580392 0 0 0 0 0.639216 0 0 0 0 0.721569 0 0 0 0.25 0"/>
<feBlend mode="normal" in2="BackgroundImageFix" result="effect1_dropShadow_25_2"/>
<feBlend mode="normal" in="SourceGraphic" in2="effect1_dropShadow_25_2" result="shape"/>
</filter>
</defs>
</svg>
