<?xml version="1.0" standalone="no"?>
<!DOCTYPE svg PUBLIC "-//W3C//DTD SVG 20010904//EN"
 "http://www.w3.org/TR/2001/REC-SVG-20010904/DTD/svg10.dtd">
<svg version="1.0" xmlns="http://www.w3.org/2000/svg"
 width="700.000000pt" height="700.000000pt" viewBox="0 0 700.000000 700.000000"
 preserveAspectRatio="xMidYMid meet">
<metadata>
Created by potrace 1.14, written by Peter Selinger 2001-2017
</metadata>
<g transform="translate(0.000000,700.000000) scale(0.100000,-0.100000)"
fill="#000000" stroke="none">
<path d="M360 6864 c0 -1 13 -16 28 -32 44 -47 79 -167 98 -342 4 -36 8 -850
9 -1810 2 -1792 1 -1781 41 -2009 91 -526 324 -1027 677 -1451 275 -331 628
-607 1020 -799 330 -161 690 -263 1047 -299 100 -9 525 -9 625 1 701 71 1367
388 1870 892 466 467 765 1046 871 1690 49 298 52 665 9 955 -101 676 -403
1271 -890 1755 -505 502 -1141 803 -1865 884 -128 14 -528 11 -660 -5 -395
-48 -750 -158 -1095 -339 l-120 -63 -1 222 c0 138 -6 244 -14 281 -37 175
-165 337 -325 411 -119 55 -133 56 -753 58 -314 0 -572 0 -572 0z m3410 -2049
c320 -30 668 -189 907 -415 285 -271 446 -594 498 -1000 8 -59 8 -269 0 -328
-17 -128 -20 -146 -47 -247 -97 -371 -347 -714 -673 -923 -427 -275 -964 -328
-1437 -143 -538 211 -925 709 -995 1281 -10 85 -10 316 0 405 11 88 59 276 93
364 165 417 500 752 910 909 236 90 478 122 744 97z"/>
</g>
</svg>
